<?xml version="1.0" encoding="utf-8"?>
<!-- Generator: Adobe Illustrator 22.1.0, SVG Export Plug-In . SVG Version: 6.00 Build 0)  -->
<svg version="1.1" id="Layer_1" xmlns="http://www.w3.org/2000/svg" xmlns:xlink="http://www.w3.org/1999/xlink" x="0px" y="0px"
	 viewBox="0 0 276.1 293.8" style="enable-background:new 0 0 276.1 293.8; fill:#E42E2E;" xml:space="preserve">
<g transform="translate(0.000000,273.000000) scale(0.100000,-0.100000)">
	<path d="M2387.2,1664.9c-122,238-342,425-630,537l-28,11v158c0,148-6,187-29,181c-4-1-31-5-61-9c-444-56-443-56-437-73
		c4-12,136-40,260-56c89-11,99-20,95-89l-3-55l-150-3c-146-3-325-30-408-63c-30-12-172-82-245-122c-62-33-233-189-294-268
		c-79-101-163-274-198-411c-27-105-30-129-30-282c0-171,4-200,47-348c57-194,193-401,344-526c40-33,77-64,83-69
		c44-41,214-123,316-154c285-87,611-57,883,80c137,69,248,158,354,284c170,203,262,455,265,726
		C2522.2,1311.9,2481.2,1482.9,2387.2,1664.9z M1715.2,1065.9c2,78,4,240,4,360c0,126,4,217,9,217s16-12,23-27
		c43-84,123-231,138-253c30-44,166-293,199-364c17-38,30-74,28-80c-2-7-64-10-198-7c-107,1-197,5-201,7
		C1714.2,920.9,1712.2,986.9,1715.2,1065.9z M400.2,1029.9c-22,185,14,351,121,559c43,84,142,212,190,245c18,13,53,40,78,60
		c129,106,480,225,480,163c0-9-22-44-49-78c-27-33-61-83-77-111c-15-27-36-63-46-80c-10-16-18-39-18-50c0-12-4-25-8-30
		c-5-6-17-44-27-85s-23-81-29-89c-7-9-11-83-11-215c1-207,7-253,52-359c14-32,15-40,3-47c-16-10-632-1-641,9
		C415.2,924.9,407.2,973.9,400.2,1029.9z M1629.2,186.9c-103-31-330-45-430-25c-110,22-219,62-312,115c-168,95-177,106-96,118
		c25,3,62,14,82,23c40,19,89,17,179-9c98-27,179-21,277,22c33,14,34,14,77-2c118-44,239-46,326-7c54,25,65,25,114,7
		c21-8,64-20,96-26c34-7,57-17,57-24C1999.2,350.9,1759.2,226.9,1629.2,186.9z M2238.2,666.9c-37-71-124-110-239-108
		c-51,1-80,8-132,32c-76,36-85,38-113,18c-79-54-237-60-318-13c-25,15-52,27-60,27c-7,0-41-14-74-30c-52-26-73-31-143-32
		c-73,0-88,3-142,31c-71,36-80,37-122,12c-43-26-108-42-173-42c-58,0-173,45-200,79c-25,30-42,76-31,83c5,4,202,4,437,1
		c312-3,430-2,435,6c4,7-11,38-32,69c-141,209-193,502-128,737c14,54,33,111,41,127c1.9,3.5,3.7,7.3,5.3,11.1
		c2.4,9.1,5.3,18.1,8.9,26.8c0.4,2.3,0.7,4.4,0.7,6.1c0,6.2,3.1,11.8,6.8,13.9c1.7,11.2,6.7,21.8,15,29.5c1.3,2.3,2.6,4.7,4.2,6.8
		c35.1,80.3,222.2,308.2,253,302.8c14-3,17-71,21-668l5-665l155-2c85,0,237-2,338-2C2256.2,722.9,2267.2,719.9,2238.2,666.9z
		 M2343.2,1042.9c-9-136-22-134-97,13c-32,61-92,175-133,252c-42,77-103,192-136,255s-71,134-85,157c-13,24-44,82-70,130
		c-25,49-52,99-59,112c-11,22-11,41,1,41c3,0,42-20,87-44c177-96,297-215,381-381C2328.2,1389.9,2357.2,1247.9,2343.2,1042.9z"/>
</g>
</svg>
